<?xml version="1.0" encoding="UTF-8" standalone="no"?>
<!-- Created with Inkscape (http://www.inkscape.org/) -->

<svg
   xmlns:dc="http://purl.org/dc/elements/1.1/"
   xmlns:cc="http://creativecommons.org/ns#"
   xmlns:rdf="http://www.w3.org/1999/02/22-rdf-syntax-ns#"
   xmlns:svg="http://www.w3.org/2000/svg"
   xmlns="http://www.w3.org/2000/svg"
   xmlns:sodipodi="http://sodipodi.sourceforge.net/DTD/sodipodi-0.dtd"
   xmlns:inkscape="http://www.inkscape.org/namespaces/inkscape"
   id="svg2"
   version="1.1"
   inkscape:version="0.91 r"
   xml:space="preserve"
   width="300"
   height="90"
   viewBox="0 0 300 90"
   sodipodi:docname="OCTARISK_logo_inline.svg"><metadata
     id="metadata8"><rdf:RDF><cc:Work
         rdf:about=""><dc:format>image/svg+xml</dc:format><dc:type
           rdf:resource="http://purl.org/dc/dcmitype/StillImage" /><dc:title></dc:title></cc:Work></rdf:RDF></metadata><defs
     id="defs6" /><sodipodi:namedview
     pagecolor="#ffffff"
     bordercolor="#666666"
     borderopacity="1"
     objecttolerance="10"
     gridtolerance="10"
     guidetolerance="10"
     inkscape:pageopacity="0"
     inkscape:pageshadow="2"
     inkscape:window-width="1920"
     inkscape:window-height="1028"
     id="namedview4"
     showgrid="false"
     inkscape:zoom="2.5633858"
     inkscape:cx="120.82465"
     inkscape:cy="49.702649"
     inkscape:window-x="0"
     inkscape:window-y="0"
     inkscape:window-maximized="1"
     inkscape:current-layer="g10" /><g
     id="g10"
     inkscape:groupmode="layer"
     inkscape:label="ink_ext_XXXXXX"
     transform="matrix(1.25,0,0,-1.25,0,90)"><g
       inkscape:export-ydpi="303.09814"
       inkscape:export-xdpi="303.09814"
       transform="matrix(1.6401759,0,0,1.6401759,3.3852284,103.15662)"
       id="g4187"><path
         inkscape:connector-curvature="0"
         id="path4189"
         style="fill:#348dd1;fill-opacity:1;fill-rule:nonzero;stroke:none"
         d="m 52.380526,-45.357363 c 0.6945,0 1.3594,0.1305 1.9855,0.3946 0.6289,0.264 1.1957,0.65 1.7004,1.1543 0.4981,0.4984 0.8782,1.0621 1.1391,1.6945 0.2613,0.6316 0.3918,1.3024 0.3918,2.009 0,0.7117 -0.1305,1.3914 -0.3945,2.0355 -0.2645,0.6438 -0.6442,1.2106 -1.1364,1.7028 -0.4988,0.4988 -1.0625,0.8785 -1.6918,1.1398 -0.6261,0.261 -1.2937,0.3914 -1.9941,0.3914 -0.7059,0 -1.3766,-0.1304 -2.0086,-0.3914 -0.632,-0.2613 -1.1898,-0.641 -1.6766,-1.1398 -0.4984,-0.5043 -0.8781,-1.0739 -1.1394,-1.7121 -0.2613,-0.6375 -0.3914,-1.3145 -0.3914,-2.0262 0,-0.7066 0.1273,-1.3742 0.3855,-2.0004 0.2582,-0.6262 0.641,-1.1926 1.1453,-1.7031 0.5106,-0.5106 1.077,-0.8961 1.6973,-1.1574 0.623,-0.261 1.2879,-0.3915 1.9879,-0.3915 z m 6.8012,5.2524 c 0,-0.9113 -0.1692,-1.7688 -0.5043,-2.5731 -0.3352,-0.807 -0.825,-1.5222 -1.4688,-2.1484 -0.6441,-0.6262 -1.3859,-1.1066 -2.2226,-1.4476 -0.8395,-0.3387 -1.7063,-0.5075 -2.6055,-0.5075 -0.8988,0 -1.7625,0.1688 -2.5961,0.5075 -0.8309,0.341 -1.5699,0.8214 -2.2137,1.4476 -0.65,0.6324 -1.1422,1.3504 -1.4836,2.1574 -0.3383,0.8043 -0.5074,1.6586 -0.5074,2.5641 0,0.9105 0.1691,1.7684 0.5074,2.5781 0.3414,0.8074 0.8336,1.5281 1.4836,2.1606 0.6379,0.6199 1.3742,1.0976 2.211,1.4328 0.8336,0.3355 1.7,0.5047 2.5988,0.5047 0.9051,0 1.7746,-0.1692 2.6144,-0.5047 0.8368,-0.3352 1.5754,-0.8129 2.2137,-1.4328 0.6438,-0.6262 1.1336,-1.3446 1.4688,-2.1516 0.3351,-0.8102 0.5043,-1.6707 0.5043,-2.5871" /><path
         inkscape:connector-curvature="0"
         id="path4191"
         style="fill:#348dd1;fill-opacity:1;fill-rule:nonzero;stroke:none"
         d="m 72.753926,-36.766663 c -0.6082,0.6613 -1.2578,1.1511 -1.9465,1.4656 -0.6914,0.3176 -1.4539,0.475 -2.2878,0.475 -0.6735,0 -1.329,-0.1367 -1.97,-0.4098 -0.6383,-0.273 -1.1961,-0.6527 -1.6648,-1.1394 -0.4867,-0.5043 -0.8516,-1.068 -1.0949,-1.691 -0.2434,-0.6235 -0.3649,-1.3118 -0.3649,-2.0657 0,-0.5902 0.0711,-1.1363 0.2164,-1.6347 0.1457,-0.4989 0.3621,-0.9559 0.6532,-1.3742 0.5101,-0.7239 1.1363,-1.2817 1.8812,-1.6735 0.7445,-0.3914 1.5488,-0.5875 2.4121,-0.5875 0.8129,0 1.5668,0.1692 2.2613,0.5043 0.6973,0.3356 1.3325,0.8371 1.9047,1.5047 l 0,-2.009 c -0.632,-0.4566 -1.3113,-0.8039 -2.0383,-1.0383 -0.7269,-0.2347 -1.4808,-0.3504 -2.2582,-0.3504 -0.6707,0 -1.3265,0.1012 -1.964,0.2997 -0.6383,0.1988 -1.2348,0.4929 -1.7926,0.8753 -0.9258,0.6411 -1.6352,1.4332 -2.1246,2.3711 -0.4895,0.9403 -0.7359,1.9704 -0.7359,3.095 0,0.9789 0.1632,1.8722 0.4929,2.6734 0.3262,0.8043 0.8246,1.5309 1.4981,2.1871 0.65,0.6258 1.3683,1.0945 2.1574,1.4031 0.7894,0.3118 1.6496,0.466 2.5816,0.466 0.7387,0 1.4508,-0.1125 2.1395,-0.3351 0.6914,-0.2227 1.3707,-0.5668 2.0441,-1.0359 l 0,-1.9758" /><path
         inkscape:connector-curvature="0"
         id="path4193"
         style="fill:#348dd1;fill-opacity:1;fill-rule:nonzero;stroke:none"
         d="m 79.190626,-46.470163 0,11.2875 -3.596,0 0,1.4425 8.7058,0 0,-1.4425 -3.5785,0 0,-11.2875 -1.5313,0" /><path
         inkscape:connector-curvature="0"
         id="path4195"
         style="fill:#348dd1;fill-opacity:1;fill-rule:nonzero;stroke:none"
         d="m 91.350426,-36.837763 c -1.4523,-3.3594 -2.7031,-6.5254 -4.1273,-9.8817 l -1.6375,0 5.7648,13.2286 5.7902,-13.2286 -1.6418,0 c -1.4105,3.3274 -2.7125,6.5645 -4.1484,9.8817" /><path
         inkscape:connector-curvature="0"
         id="path4197"
         style="fill:#99d420;fill-opacity:1;fill-rule:nonzero;stroke:none"
         d="m 101.09683,-46.470163 0,12.73 2.992,0 c 0.851,0 1.478,-0.0476 1.872,-0.1425 0.398,-0.0981 0.748,-0.2614 1.051,-0.4926 0.377,-0.2938 0.668,-0.6914 0.875,-1.1871 0.211,-0.4953 0.314,-1.0442 0.314,-1.6465 0,-1.0418 -0.29,-1.8371 -0.872,-2.377 -0.585,-0.5429 -1.436,-0.8129 -2.561,-0.8129 l -0.27,0 4.86,-6.0714 -1.922,0 -4.647,6.0714 -0.213,0 0,-6.0714 -1.479,0 z m 1.479,11.448 0,-4.2555 1.154,0 c 1.184,0 1.976,0.1516 2.376,0.4575 0.401,0.3023 0.6,0.8336 0.6,1.5933 0,0.816 -0.205,1.3856 -0.617,1.7149 -0.413,0.3265 -1.199,0.4898 -2.359,0.4898 l -1.154,0" /><path
         inkscape:connector-curvature="0"
         id="path4199"
         style="fill:#99d420;fill-opacity:1;fill-rule:nonzero;stroke:none"
         d="m 113.93283,-46.470163 1.51367,0 0,12.7301 -1.51367,0 0,-12.7301 z" /><path
         inkscape:connector-curvature="0"
         id="path4201"
         style="fill:#99d420;fill-opacity:1;fill-rule:nonzero;stroke:none"
         d="m 125.94283,-39.395963 c 0.828,-0.3528 1.454,-0.8219 1.872,-1.4067 0.421,-0.5843 0.632,-1.2785 0.632,-2.0769 0,-1.1692 -0.374,-2.1125 -1.119,-2.8278 -0.744,-0.7152 -1.73,-1.0742 -2.961,-1.0742 -1.003,0 -1.843,0.2555 -2.522,0.7688 -0.677,0.5133 -1.134,1.2402 -1.374,2.1836 l 1.374,0.6797 c 0.187,-0.7715 0.492,-1.3563 0.92,-1.7536 0.424,-0.3976 0.958,-0.5964 1.602,-0.5964 0.76,0 1.374,0.2195 1.846,0.6554 0.468,0.4395 0.703,1.009 0.703,1.7094 0,0.5695 -0.163,1.0621 -0.493,1.4836 -0.326,0.4215 -0.819,0.7746 -1.48,1.0656 l -1.549,0.6614 c -0.846,0.3531 -1.478,0.807 -1.891,1.3648 -0.415,0.5551 -0.623,1.2227 -0.623,2.0004 0,0.9047 0.336,1.6523 1.009,2.2433 0.674,0.5903 1.532,0.8868 2.576,0.8868 0.763,0 1.427,-0.1629 1.985,-0.4864 0.561,-0.3265 0.997,-0.8043 1.308,-1.439 l -1.252,-0.7985 c -0.282,0.4926 -0.602,0.8575 -0.955,1.0981 -0.353,0.2402 -0.754,0.3617 -1.199,0.3617 -0.57,0 -1.036,-0.175 -1.397,-0.5219 -0.363,-0.3472 -0.543,-0.7894 -0.543,-1.3297 0,-0.4507 0.139,-0.8425 0.418,-1.1718 0.276,-0.3325 0.709,-0.6231 1.294,-0.8782 l 1.819,-0.8015" /><path
         inkscape:connector-curvature="0"
         id="path4203"
         style="fill:#99d420;fill-opacity:1;fill-rule:nonzero;stroke:none"
         d="m 133.17183,-46.470163 0,12.73 1.496,0 0,-5.6617 5.344,5.6617 1.807,0 -5.457,-5.73 5.997,-7 -1.955,0 -5.736,6.8515 0,-6.8515 -1.496,0" /><path
         inkscape:connector-curvature="0"
         id="path4205"
         style="fill:#1673c3;fill-opacity:1;fill-rule:evenodd;stroke:none"
         d="m 8.7430155,-44.955763 3.2016105,1.6637 0,-13.28635 -3.2016105,0 0,11.62265" /><path
         inkscape:connector-curvature="0"
         id="path4207"
         style="fill:#91d122;fill-opacity:1;fill-rule:evenodd;stroke:none"
         d="m 14.171126,-40.534663 3.202,1.5188 0,-17.56255 -3.202,0 0,16.04375" /><path
         inkscape:connector-curvature="0"
         id="path4209"
         style="fill:#1673c3;fill-opacity:1;fill-rule:evenodd;stroke:none"
         d="m 19.727826,-36.462763 3.2015,1.6637 0,-21.77935 -3.2015,0 0,20.11565" /><path
         inkscape:connector-curvature="0"
         id="path4211"
         style="fill:#91d122;fill-opacity:1;fill-rule:evenodd;stroke:none"
         d="m 24.878126,-29.879963 3.202,1.1574 0,-27.85585 -3.202,0 0,26.69845" /><path
         inkscape:connector-curvature="0"
         id="path4213"
         style="fill:#1673c3;fill-opacity:1;fill-rule:evenodd;stroke:none"
         d="m 2.4246555,-45.929163 c 3.39765,-21.30198 35.4648705,-16.125028 32.0781705,5.1156 -0.0368,0.2301 -0.0801,0.457 -0.1254,0.682 2.1945,-19.22028 -26.4598005,-22.895675 -29.4699605,-4.0156 -1.25625,7.8871 3.93906,15.3176 11.6878605,16.9086 -0.2297,-0.0273 -0.4586,-0.0563 -0.6898,-0.0934 -8.8554805,-1.4125 -14.8933705,-9.7406 -13.4808705,-18.5972" /><path
         inkscape:connector-curvature="0"
         id="path4215"
         style="fill:#91d122;fill-opacity:1;fill-rule:evenodd;stroke:none"
         d="m 19.252426,-20.091663 c 28.2582,1.1668 30.4757,-40.08948 2.2398,-41.478153 -0.298,-0.01523 -0.5914,-0.02266 -0.8871,-0.02539 25.025,2.470704 20.9578,39.210944 -2.9102,37.920344 -10.1995705,-0.552 -18.08941247,-9.0481 -17.99253747,-19.1614 -0.026563,0.2934 -0.053125,0.5891 -0.06875,0.8868 -0.617188,11.45 8.16640697,21.2386 19.61878747,21.8578" /></g></g></svg>