<?xml version="1.0" encoding="UTF-8" standalone="no"?>
<!-- Created with Inkscape (http://www.inkscape.org/) -->

<svg
   xmlns:dc="http://purl.org/dc/elements/1.1/"
   xmlns:cc="http://creativecommons.org/ns#"
   xmlns:rdf="http://www.w3.org/1999/02/22-rdf-syntax-ns#"
   xmlns:svg="http://www.w3.org/2000/svg"
   xmlns="http://www.w3.org/2000/svg"
   xmlns:sodipodi="http://sodipodi.sourceforge.net/DTD/sodipodi-0.dtd"
   xmlns:inkscape="http://www.inkscape.org/namespaces/inkscape"
   id="svg2"
   version="1.1"
   inkscape:version="0.91 r"
   xml:space="preserve"
   width="300"
   height="180"
   viewBox="0 0 300 180"
   sodipodi:docname="OCTARISK_logo_standard.svg"><metadata
     id="metadata8"><rdf:RDF><cc:Work
         rdf:about=""><dc:format>image/svg+xml</dc:format><dc:type
           rdf:resource="http://purl.org/dc/dcmitype/StillImage" /><dc:title></dc:title></cc:Work></rdf:RDF></metadata><defs
     id="defs6" /><sodipodi:namedview
     pagecolor="#ffffff"
     bordercolor="#666666"
     borderopacity="1"
     objecttolerance="10"
     gridtolerance="10"
     guidetolerance="10"
     inkscape:pageopacity="0"
     inkscape:pageshadow="2"
     inkscape:window-width="1920"
     inkscape:window-height="1028"
     id="namedview4"
     showgrid="false"
     inkscape:zoom="1.2816929"
     inkscape:cx="40.952371"
     inkscape:cy="48.962259"
     inkscape:window-x="0"
     inkscape:window-y="0"
     inkscape:window-maximized="1"
     inkscape:current-layer="g10" /><g
     id="g10"
     inkscape:groupmode="layer"
     inkscape:label="ink_ext_XXXXXX"
     transform="matrix(1.25,0,0,-1.25,0,180)"><g
       inkscape:export-ydpi="300"
       inkscape:export-xdpi="300"
       transform="matrix(2.4477388,0,0,2.4477388,-39.564762,-349.12574)"
       id="g4155"><g
         transform="matrix(0.1,0,0,0.1,16.223735,143.19372)"
         id="g4157"><path
           inkscape:connector-curvature="0"
           id="path4159"
           style="fill:#348dd1;fill-opacity:1;fill-rule:nonzero;stroke:none"
           d="m 74.1133,18.7422 c 6.9453,0 13.5937,1.3047 19.8555,3.9453 6.2892,2.6406 11.9572,6.5 17.0042,11.543 4.98,4.9843 8.781,10.6211 11.39,16.9453 2.614,6.3164 3.918,13.0234 3.918,20.0859 0,7.1211 -1.304,13.918 -3.945,20.3594 -2.645,6.4375 -6.441,12.1059 -11.363,17.0269 -4.989,4.989 -10.625,8.786 -16.9144,11.399 -6.2617,2.609 -12.9375,3.914 -19.9453,3.914 -7.0586,0 -13.7656,-1.305 -20.086,-3.914 -6.3203,-2.613 -11.8984,-6.41 -16.7656,-11.399 -4.9844,-5.043 -8.7812,-10.7378 -11.3906,-17.1207 -2.6172,-6.375 -3.918,-13.1445 -3.918,-20.2656 0,-7.0625 1.2735,-13.7383 3.8555,-20 C 28.3906,45 32.2188,39.3359 37.2617,34.2305 42.3672,29.125 48.0352,25.2695 54.2344,22.6563 60.4648,20.0469 67.1133,18.7422 74.1133,18.7422 Z m 68.0117,52.5195 c 0,-9.1094 -1.691,-17.6836 -5.043,-25.7265 C 133.73,37.4648 128.832,30.3125 122.395,24.0508 115.953,17.7891 108.535,12.9844 100.168,9.57422 91.7734,6.1875 83.1055,4.5 74.1133,4.5 65.125,4.5 56.4883,6.1875 48.1523,9.57422 39.8438,12.9844 32.4531,17.7891 26.0156,24.0508 19.5156,30.375 14.5938,37.5547 11.1797,45.625 7.79688,53.668 6.10547,62.2109 6.10547,71.2617 c 0,9.1094 1.69141,17.6875 5.07423,25.7852 3.4141,8.0741 8.3359,15.2811 14.8359,21.6051 6.3789,6.2 13.7422,10.977 22.1094,14.332 8.3359,3.352 17,5.043 25.9883,5.043 9.0547,0 17.7461,-1.691 26.1447,-5.043 8.367,-3.355 15.758,-8.132 22.137,-14.332 6.437,-6.261 11.335,-13.445 14.687,-21.5153 3.352,-8.1015 5.043,-16.707 5.043,-25.875" /><path
           inkscape:connector-curvature="0"
           id="path4161"
           style="fill:#348dd1;fill-opacity:1;fill-rule:nonzero;stroke:none"
           d="m 277.848,104.734 c -6.082,6.618 -12.578,11.512 -19.465,14.661 -6.914,3.171 -14.539,4.746 -22.879,4.746 -6.734,0 -13.289,-1.368 -19.699,-4.094 -6.379,-2.731 -11.961,-6.531 -16.649,-11.399 -4.867,-5.043 -8.515,-10.6792 -10.949,-16.9097 -2.434,-6.2344 -3.648,-13.1172 -3.648,-20.6524 0,-5.9062 0.711,-11.3632 2.164,-16.3515 1.457,-4.9844 3.621,-9.5547 6.531,-13.7383 5.101,-7.2422 11.363,-12.8203 18.812,-16.7383 7.446,-3.914 15.489,-5.8711 24.122,-5.8711 8.132,0 15.667,1.6875 22.613,5.043 6.972,3.3516 13.324,8.3672 19.047,15.0469 l 0,-20.0899 C 271.527,13.8164 264.734,10.3438 257.465,8 250.195,5.65625 242.656,4.5 234.883,4.5 c -6.703,0 -13.266,1.00781 -19.641,2.99609 -6.383,1.98829 -12.347,4.92581 -17.926,8.75391 -9.257,6.4063 -16.347,14.332 -21.246,23.707 -4.894,9.4063 -7.359,19.7032 -7.359,30.9493 0,9.7929 1.633,18.7226 4.93,26.7382 3.261,8.0395 8.246,15.3085 14.984,21.8675 6.496,6.258 13.68,10.949 21.57,14.035 7.895,3.113 16.496,4.656 25.817,4.656 7.386,0 14.508,-1.125 21.394,-3.351 6.914,-2.227 13.707,-5.668 20.442,-10.356 l 0,-19.762" /><path
           inkscape:connector-curvature="0"
           id="path4163"
           style="fill:#348dd1;fill-opacity:1;fill-rule:nonzero;stroke:none"
           d="m 342.215,7.88281 0,112.87519 -35.961,0 0,14.422 87.059,0 0,-14.422 -35.786,0 0,-112.87519 -15.312,0" /><path
           inkscape:connector-curvature="0"
           id="path4165"
           style="fill:#348dd1;fill-opacity:1;fill-rule:nonzero;stroke:none"
           d="M 463.813,106.695 C 449.289,73.1016 436.781,41.4414 422.543,7.87891 l -16.379,0 57.649,132.28509 57.906,-132.28509 -16.422,0 C 491.195,41.1523 478.172,73.5273 463.813,106.695" /><path
           inkscape:connector-curvature="0"
           id="path4167"
           style="fill:#99d420;fill-opacity:1;fill-rule:nonzero;stroke:none"
           d="m 561.281,7.88281 0,127.29719 29.914,0 c 8.516,0 14.778,-0.477 18.723,-1.426 3.977,-0.977 7.477,-2.609 10.504,-4.926 3.769,-2.937 6.68,-6.914 8.754,-11.871 2.109,-4.953 3.144,-10.441 3.144,-16.465 0,-10.4178 -2.906,-18.367 -8.722,-23.7693 -5.848,-5.4297 -14.36,-8.1289 -25.61,-8.1289 l -2.699,0 48.606,-60.71099 -19.231,0 -46.469,60.71099 -2.132,0 0,-60.71099 -14.782,0 z m 14.782,114.47619 0,-42.5504 11.542,0 c 11.836,0 19.762,1.5117 23.766,4.5703 4.008,3.0234 5.996,8.3359 5.996,15.9341 0,8.16 -2.047,13.855 -6.172,17.148 -4.125,3.266 -11.988,4.898 -23.59,4.898 l -11.542,0" /><path
           inkscape:connector-curvature="0"
           id="path4169"
           style="fill:#99d420;fill-opacity:1;fill-rule:nonzero;stroke:none"
           d="m 689.637,7.88281 15.1367,0 0,127.297 -15.1367,0 0,-127.297 z" /><path
           inkscape:connector-curvature="0"
           id="path4171"
           style="fill:#99d420;fill-opacity:1;fill-rule:nonzero;stroke:none"
           d="m 809.734,78.5313 c 8.278,-3.5274 14.539,-8.2188 18.723,-14.0665 4.211,-5.8437 6.316,-12.7851 6.316,-20.7695 0,-11.6914 -3.734,-21.125 -11.183,-28.2773 -7.445,-7.15237 -17.301,-10.74222 -29.613,-10.74222 -10.032,0 -18.43,2.55469 -25.223,7.68752 -6.766,5.1328 -11.336,12.4023 -13.738,21.8359 l 13.738,6.7969 c 1.871,-7.7148 4.926,-13.5625 9.199,-17.5352 4.242,-3.9765 9.582,-5.9648 16.024,-5.9648 7.597,0 13.738,2.1953 18.457,6.5547 4.687,4.3945 7.031,10.0898 7.031,17.0937 0,5.6953 -1.633,10.6211 -4.926,14.836 -3.262,4.2148 -8.191,7.7461 -14.805,10.6523 L 784.242,73.25 c -8.457,3.5313 -14.777,8.0703 -18.902,13.6484 -4.152,5.5508 -6.231,12.2266 -6.231,20.0036 0,9.047 3.356,16.524 10.09,22.434 6.735,5.902 15.313,8.867 25.754,8.867 7.629,0 14.277,-1.629 19.856,-4.863 5.605,-3.266 9.968,-8.043 13.086,-14.391 l -12.524,-7.984 c -2.82,4.926 -6.027,8.574 -9.555,10.98 -3.531,2.403 -7.539,3.618 -11.988,3.618 -5.695,0 -10.355,-1.75 -13.976,-5.219 -3.622,-3.473 -5.43,-7.895 -5.43,-13.297 0,-4.508 1.394,-8.4259 4.183,-11.7189 2.758,-3.3242 7.09,-6.2304 12.938,-8.7812 l 18.191,-8.0156" /><path
           inkscape:connector-curvature="0"
           id="path4173"
           style="fill:#99d420;fill-opacity:1;fill-rule:nonzero;stroke:none"
           d="m 882.027,7.88281 0,127.29719 14.957,0 0,-56.6175 53.442,56.6175 18.07,0 -54.566,-57.3011 59.968,-69.99609 -19.554,0 -57.36,68.51559 0,-68.51559 -14.957,0" /><path
           inkscape:connector-curvature="0"
           id="path4175"
           style="fill:#1673c3;fill-opacity:1;fill-rule:evenodd;stroke:none"
           d="m 386.355,326.613 32.016,16.637 0,-132.863 -32.016,0 0,116.226" /><path
           inkscape:connector-curvature="0"
           id="path4177"
           style="fill:#91d122;fill-opacity:1;fill-rule:evenodd;stroke:none"
           d="m 440.637,370.828 32.019,15.184 0,-175.625 -32.019,0 0,160.441" /><path
           inkscape:connector-curvature="0"
           id="path4179"
           style="fill:#1673c3;fill-opacity:1;fill-rule:evenodd;stroke:none"
           d="m 496.203,411.547 32.016,16.637 0,-217.797 -32.016,0 0,201.16" /><path
           inkscape:connector-curvature="0"
           id="path4181"
           style="fill:#91d122;fill-opacity:1;fill-rule:evenodd;stroke:none"
           d="m 547.707,477.371 32.02,11.578 0,-278.562 -32.02,0 0,266.984" /><path
           inkscape:connector-curvature="0"
           id="path4183"
           style="fill:#1673c3;fill-opacity:1;fill-rule:evenodd;stroke:none"
           d="m 323.172,316.879 c 33.976,-213.016 354.648,-161.246 320.781,51.156 -0.371,2.301 -0.801,4.57 -1.258,6.82 C 664.645,182.652 378.098,145.898 348,334.703 c -12.566,78.871 39.391,153.176 116.875,169.082 -2.293,-0.273 -4.586,-0.562 -6.895,-0.933 C 369.426,488.727 309.043,405.445 323.172,316.879" /><path
           inkscape:connector-curvature="0"
           id="path4185"
           style="fill:#91d122;fill-opacity:1;fill-rule:evenodd;stroke:none"
           d="m 491.449,575.254 c 282.578,11.668 304.758,-400.891 22.395,-414.781 -2.977,-0.149 -5.91,-0.223 -8.867,-0.254 250.246,24.707 209.578,392.113 -29.102,379.207 -101.996,-5.524 -180.895,-90.481 -179.926,-191.613 -0.265,2.929 -0.535,5.886 -0.687,8.863 -6.172,114.504 81.66,212.387 196.187,218.578" /></g></g></g></svg>